<svg width="702" height="535" viewBox="0 0 702 535" fill="none" xmlns="http://www.w3.org/2000/svg">
<g clip-path="url(#clip0_469_1827)">
<path d="M611.519 207.456C601.962 231.394 623.044 227.29 634.78 222.245C646.434 217.021 656.854 216.598 660.607 217.039C728.369 227.671 644.375 129.718 647.073 172.2C649.77 214.682 623.466 177.533 611.519 207.456Z" stroke="#CECECE" stroke-width="0.96689"/>
<path d="M144.947 363.808C48.5856 605.056 261.126 563.689 379.442 512.85C496.94 460.192 601.987 455.927 639.823 460.376C1322.97 567.507 476.205 -419.639 503.389 8.49148C530.573 436.622 265.399 62.2477 144.947 363.808Z" stroke="#CECECE" stroke-width="0.96689"/>
<path d="M589.304 214.899C575.613 249.185 605.812 243.307 622.623 236.082C639.318 228.598 654.244 227.992 659.62 228.625C756.686 243.852 636.37 103.556 640.233 164.402C644.097 225.249 606.418 172.042 589.304 214.899Z" stroke="#CECECE" stroke-width="0.96689"/>
<path d="M567.086 222.349C549.262 266.983 588.578 259.33 610.464 249.924C632.199 240.182 651.631 239.393 658.63 240.216C785 260.039 628.361 77.4005 633.391 156.611C638.42 235.821 589.367 166.556 567.086 222.349Z" stroke="#CECECE" stroke-width="0.96689"/>
<path d="M544.868 229.795C522.91 284.777 571.343 275.35 598.304 263.763C625.079 251.763 649.017 250.791 657.639 251.805C813.313 276.222 620.352 51.2416 626.548 148.816C632.743 246.391 572.315 161.067 544.868 229.795Z" stroke="#CECECE" stroke-width="0.96689"/>
<path d="M522.649 237.236C496.557 302.566 554.107 291.364 586.144 277.597C617.959 263.337 646.403 262.183 656.648 263.388C841.627 292.4 612.343 25.0769 619.704 141.016C627.066 256.954 555.263 155.572 522.649 237.236Z" stroke="#CECECE" stroke-width="0.96689"/>
<path d="M500.43 244.679C470.205 320.358 536.872 307.381 573.984 291.433C610.839 274.915 643.789 273.577 655.657 274.973C869.94 308.581 604.333 -1.08471 612.861 133.218C621.389 267.521 538.211 150.081 500.43 244.679Z" stroke="#CECECE" stroke-width="0.96689"/>
<path d="M478.215 252.13C443.857 338.157 519.641 323.406 561.828 305.277C603.724 286.5 641.18 284.98 654.671 286.566C898.258 324.769 596.329 -27.239 606.022 125.428C615.716 278.095 521.164 144.597 478.215 252.13Z" stroke="#CECECE" stroke-width="0.96689"/>
<path d="M455.993 259.575C417.501 355.949 502.402 339.424 549.664 319.115C596.6 298.079 638.562 296.375 653.676 298.153C926.567 340.951 588.316 -53.3995 599.175 117.632C610.035 288.663 504.108 139.106 455.993 259.575Z" stroke="#CECECE" stroke-width="0.96689"/>
<path d="M433.782 267.021C391.156 373.744 485.175 355.444 537.512 332.954C589.489 309.66 635.957 307.773 652.694 309.741C954.888 357.135 580.315 -79.5586 592.34 109.837C604.366 299.232 487.064 133.617 433.782 267.021Z" stroke="#CECECE" stroke-width="0.96689"/>
<path d="M411.56 274.468C364.8 391.539 467.936 371.465 525.349 346.794C582.365 321.241 633.339 319.171 651.699 321.331C983.198 373.319 572.302 -105.716 585.493 102.043C598.685 309.803 470.008 128.129 411.56 274.468Z" stroke="#CECECE" stroke-width="0.96689"/>
<path d="M389.348 281.909C338.456 409.328 450.708 387.48 513.196 360.628C575.253 332.816 630.733 330.564 650.716 332.914C1011.52 389.497 564.3 -131.881 578.658 94.2433C593.016 320.367 452.964 122.635 389.348 281.909Z" stroke="#CECECE" stroke-width="0.96689"/>
<path d="M367.126 289.355C312.1 427.122 433.469 403.499 501.033 374.467C568.129 344.397 628.115 341.961 649.721 344.502C1039.83 405.681 556.287 -158.04 571.811 86.4483C587.335 330.937 435.908 117.146 367.126 289.355Z" stroke="#CECECE" stroke-width="0.96689"/>
<path d="M344.908 296.805C285.748 444.921 416.235 419.523 488.873 388.31C561.01 355.981 625.502 353.363 648.731 356.095C1068.14 421.868 548.279 -184.195 564.969 78.6577C581.658 341.51 418.857 111.661 344.908 296.805Z" stroke="#CECECE" stroke-width="0.96689"/>
<path d="M322.685 304.247C259.392 462.711 398.996 435.539 476.709 402.145C553.886 367.557 622.885 364.756 647.737 367.678C1096.45 438.047 540.266 -210.358 558.121 70.8584C575.977 352.075 401.801 106.168 322.685 304.247Z" stroke="#CECECE" stroke-width="0.96689"/>
<path d="M300.474 311.696C233.047 480.508 381.769 451.562 464.557 415.987C546.775 379.141 620.279 376.156 646.754 379.27C1124.77 454.234 532.265 -236.514 551.286 63.0667C570.308 362.647 384.758 100.682 300.474 311.696Z" stroke="#CECECE" stroke-width="0.96689"/>
<path d="M278.251 319.135C206.691 498.294 364.529 467.574 452.393 429.818C539.651 390.713 617.661 387.546 645.759 390.85C1153.08 470.41 524.251 -262.681 544.439 55.264C564.627 373.209 367.701 95.1851 278.251 319.135Z" stroke="#CECECE" stroke-width="0.96689"/>
<path d="M256.04 326.581C180.346 516.089 347.301 483.593 440.241 443.657C532.539 402.294 615.055 398.943 644.776 402.438C1181.4 486.593 516.25 -288.84 537.604 47.469C558.957 383.778 350.657 89.696 256.04 326.581Z" stroke="#CECECE" stroke-width="0.96689"/>
<path d="M233.818 334.025C153.99 533.881 330.063 499.612 428.077 457.495C525.415 413.872 612.438 410.339 643.782 414.025C1209.71 502.775 508.237 -315.001 530.757 39.6725C553.277 394.346 333.602 84.2053 233.818 334.025Z" stroke="#CECECE" stroke-width="0.96689"/>
<path d="M211.607 341.478C127.646 551.682 312.836 515.638 415.925 471.341C518.304 425.459 609.832 421.743 642.799 425.62C1238.03 518.965 500.236 -341.153 523.922 31.8843C547.608 404.922 316.558 78.723 211.607 341.478Z" stroke="#CECECE" stroke-width="0.96689"/>
<path d="M189.385 348.922C101.29 569.475 295.597 531.656 403.762 485.178C511.18 437.038 607.215 433.139 641.805 437.207C1266.34 535.146 492.223 -367.314 517.075 24.0877C541.927 415.49 299.503 73.2323 189.385 348.922Z" stroke="#CECECE" stroke-width="0.96689"/>
<path d="M167.162 356.364C74.934 587.264 278.358 547.671 391.598 499.012C504.056 448.614 604.597 444.531 640.81 448.79C1294.65 551.325 484.21 -393.478 510.228 16.288C536.246 426.054 282.447 67.7383 167.162 356.364Z" stroke="#CECECE" stroke-width="0.96689"/>
</g>
<defs>
<clipPath id="clip0_469_1827">
<rect width="721" height="480" fill="white" transform="translate(0 55.8496) rotate(-4.44266)"/>
</clipPath>
</defs>
</svg>
