<svg width="643" height="535" viewBox="0 0 643 535" fill="none" xmlns="http://www.w3.org/2000/svg">
<g clip-path="url(#clip0_469_1854)">
<path d="M30.4957 207.456C40.0531 231.394 18.9712 227.29 7.23559 222.245C-4.41903 217.021 -14.8386 216.598 -18.5916 217.039C-86.3537 227.672 -2.35977 129.718 -5.05737 172.2C-7.75498 214.682 18.5488 177.533 30.4957 207.456Z" stroke="#CECECE" stroke-width="0.96689"/>
<path d="M497.068 363.808C593.43 605.057 380.889 563.689 262.573 512.85C145.075 460.193 40.0282 455.927 2.19221 460.377C-680.956 567.507 165.81 -419.638 138.626 8.49172C111.442 436.622 376.616 62.2479 497.068 363.808Z" stroke="#CECECE" stroke-width="0.96689"/>
<path d="M52.7107 214.899C66.4017 249.186 36.2027 243.307 19.3918 236.082C2.69699 228.599 -12.2287 227.993 -17.6046 228.625C-114.671 243.852 5.64561 103.556 1.78199 164.403C-2.08164 225.249 35.597 172.042 52.7107 214.899Z" stroke="#CECECE" stroke-width="0.96689"/>
<path d="M74.9288 222.349C92.7533 266.983 53.4373 259.33 31.5512 249.924C9.81619 240.182 -9.61552 239.393 -16.6145 240.217C-142.985 260.039 13.6542 77.4007 8.62451 156.611C3.59486 235.821 52.6482 166.556 74.9288 222.349Z" stroke="#CECECE" stroke-width="0.96689"/>
<path d="M97.1475 229.795C119.106 284.778 70.6724 275.35 43.7111 263.764C16.9359 251.763 -7.00189 250.791 -15.6239 251.805C-171.298 276.223 21.6632 51.242 15.4675 148.817C9.27185 246.391 69.7 161.067 97.1475 229.795Z" stroke="#CECECE" stroke-width="0.96689"/>
<path d="M119.366 237.236C145.458 302.566 87.9077 291.364 55.8712 277.597C24.0558 263.338 -4.38801 262.183 -14.633 263.388C-199.611 292.4 29.6725 25.0771 22.3108 141.016C14.9491 256.955 86.752 155.573 119.366 237.236Z" stroke="#CECECE" stroke-width="0.96689"/>
<path d="M141.585 244.679C171.81 320.358 105.143 307.382 68.0313 291.434C31.1757 274.915 -1.77411 273.578 -13.6421 274.973C-227.925 308.581 37.6818 -1.08447 29.1541 133.219C20.6263 267.521 103.804 150.081 141.585 244.679Z" stroke="#CECECE" stroke-width="0.96689"/>
<path d="M163.8 252.13C198.158 338.157 122.374 323.406 80.1868 305.277C38.291 286.501 0.835126 284.98 -12.6558 286.567C-256.242 324.769 45.6864 -27.2388 35.9927 125.428C26.2989 278.096 120.851 144.597 163.8 252.13Z" stroke="#CECECE" stroke-width="0.96689"/>
<path d="M186.022 259.575C224.515 355.949 139.613 339.424 92.3508 319.115C45.4148 298.079 3.45291 296.376 -11.6611 298.153C-284.552 340.951 53.6996 -53.3994 42.8398 117.632C31.9801 288.663 137.907 139.106 186.022 259.575Z" stroke="#CECECE" stroke-width="0.96689"/>
<path d="M208.233 267.021C250.859 373.744 156.84 355.444 104.503 332.954C52.5265 309.66 6.05849 307.773 -10.6785 309.742C-312.873 357.135 61.7006 -79.5584 49.6748 109.837C37.649 299.233 154.951 133.617 208.233 267.021Z" stroke="#CECECE" stroke-width="0.96689"/>
<path d="M230.456 274.468C277.215 391.539 174.079 371.465 116.666 346.794C59.65 321.241 8.67602 319.172 -9.68393 321.331C-341.183 373.319 69.7135 -105.716 56.5217 102.043C43.3299 309.803 172.007 128.129 230.456 274.468Z" stroke="#CECECE" stroke-width="0.96689"/>
<path d="M252.667 281.909C303.559 409.328 191.307 387.48 128.819 360.628C66.7621 332.817 11.2821 330.564 -8.70087 332.914C-369.504 389.498 77.7149 -131.88 63.3571 94.2435C48.9993 320.367 189.051 122.635 252.667 281.909Z" stroke="#CECECE" stroke-width="0.96689"/>
<path d="M274.889 289.355C329.916 427.123 208.546 403.5 140.983 374.467C73.8858 344.397 13.8997 341.962 -7.70632 344.502C-397.813 405.681 85.7279 -158.04 70.2041 86.4487C54.6802 330.937 206.107 117.146 274.889 289.355Z" stroke="#CECECE" stroke-width="0.96689"/>
<path d="M297.108 296.806C356.267 444.921 225.78 419.524 153.142 388.311C81.0049 355.982 16.5128 353.363 -6.71616 356.095C-426.127 421.869 93.7365 -184.194 77.0466 78.658C60.3567 341.51 223.158 111.662 297.108 296.806Z" stroke="#CECECE" stroke-width="0.96689"/>
<path d="M319.33 304.248C382.624 462.711 243.02 435.539 165.306 402.145C88.1288 367.558 19.1306 364.756 -5.72138 367.679C-454.437 438.048 101.75 -210.358 83.8937 70.8588C66.0379 352.075 240.214 106.168 319.33 304.248Z" stroke="#CECECE" stroke-width="0.96689"/>
<path d="M341.541 311.697C408.968 480.508 260.247 451.562 177.458 415.987C95.2404 379.141 21.7361 376.157 -4.73881 379.27C-482.758 454.234 109.751 -236.514 90.7287 63.0669C71.7068 362.648 257.257 100.682 341.541 311.697Z" stroke="#CECECE" stroke-width="0.96689"/>
<path d="M363.764 319.135C435.324 498.295 277.486 467.574 189.622 429.819C102.365 390.714 24.3542 387.546 -3.74374 390.85C-511.067 470.41 117.764 -262.681 97.5762 55.2641C77.3882 373.209 274.314 95.1852 363.764 319.135Z" stroke="#CECECE" stroke-width="0.96689"/>
<path d="M385.975 326.581C461.669 516.089 294.713 483.594 201.774 443.658C109.476 402.294 26.96 398.943 -2.76095 402.439C-539.388 486.593 125.765 -288.84 104.411 47.4693C83.0574 383.779 291.358 89.6963 385.975 326.581Z" stroke="#CECECE" stroke-width="0.96689"/>
<path d="M408.198 334.026C488.025 533.882 311.953 499.612 213.938 457.495C116.6 413.873 29.5775 410.339 -1.76638 414.025C-567.698 502.775 133.778 -315 111.258 39.6729C88.7383 394.346 308.413 84.2057 408.198 334.026Z" stroke="#CECECE" stroke-width="0.96689"/>
<path d="M430.408 341.478C514.369 551.682 329.179 515.638 226.089 471.341C123.711 425.46 32.1828 421.743 -0.784101 425.62C-596.02 518.965 141.779 -341.153 118.093 31.8845C94.4069 404.922 325.457 78.7232 430.408 341.478Z" stroke="#CECECE" stroke-width="0.96689"/>
<path d="M452.63 348.923C540.725 569.475 346.418 531.656 238.253 485.178C130.835 437.038 34.8002 433.139 0.210251 437.207C-624.329 535.147 149.792 -367.314 124.94 24.088C100.088 415.49 342.512 73.2325 452.63 348.923Z" stroke="#CECECE" stroke-width="0.96689"/>
<path d="M474.853 356.364C567.081 587.264 363.658 547.671 250.418 499.012C137.959 448.614 37.4184 444.531 1.2055 448.79C-652.638 551.325 157.805 -393.478 131.787 16.2882C105.769 426.054 359.569 67.7386 474.853 356.364Z" stroke="#CECECE" stroke-width="0.96689"/>
</g>
<defs>
<clipPath id="clip0_469_1854">
<rect width="721" height="480" fill="white" transform="matrix(-0.996995 -0.0774614 -0.0774614 0.996995 642.015 55.8497)"/>
</clipPath>
</defs>
</svg>
