<svg width="1269" height="694" viewBox="0 0 1269 694" fill="none" xmlns="http://www.w3.org/2000/svg">
<g opacity="0.05" filter="url(#filter0_d_469_1803)">
<path d="M324.962 82.0231L393.817 86.4904C395.782 56.2136 377.738 28.2061 349.357 17.4793C320.976 6.75254 288.918 15.8237 270.365 39.8308L324.962 82.0231ZM290.277 616.63L221.421 612.163C219.432 642.828 237.962 671.114 266.869 681.539C295.777 691.963 328.095 682.015 346.135 657.137L290.277 616.63ZM687.083 69.443L756.023 72.3205C757.292 41.9116 738.487 14.2627 709.74 4.26887C680.992 -5.72493 649.091 4.29711 631.224 28.9358L687.083 69.443ZM664.652 606.828L595.713 603.95C594.438 634.489 613.406 662.227 642.327 672.116C671.248 682.006 703.229 671.69 720.92 646.765L664.652 606.828ZM1037.14 82.0231L1099.69 52.8971C1089.32 30.6148 1067.87 15.5342 1043.4 13.3069C1018.92 11.0797 995.102 22.0422 980.876 42.0861L1037.14 82.0231ZM1132.94 451.216C1149.02 485.763 1190.07 500.728 1224.62 484.642C1259.16 468.556 1274.13 427.511 1258.04 392.965L1132.94 451.216ZM26.7433 451.121L53.3595 514.781C64.571 510.093 72.2122 503.188 72.4743 502.966C74.851 500.95 76.853 499.022 78.1736 497.717C80.926 494.998 83.8168 491.901 86.5144 488.934C92.0584 482.836 99.1996 474.612 107.508 464.829C124.244 445.122 147.169 417.367 174.466 383.728C229.125 316.37 302.076 224.478 379.559 124.215L324.962 82.0231L270.365 39.8308C193.5 139.294 121.228 230.326 67.3084 296.773C40.3159 330.036 18.1124 356.904 2.31997 375.501C-5.63553 384.869 -11.6081 391.717 -15.5977 396.106C-16.5641 397.169 -17.3322 397.997 -17.92 398.619C-18.2101 398.926 -18.4333 399.158 -18.5948 399.324C-18.7593 399.493 -18.8302 399.563 -18.8183 399.551C-18.8135 399.546 -18.659 399.394 -18.3782 399.132C-18.1185 398.89 -17.5678 398.383 -16.7852 397.72C-16.0881 397.129 -14.6347 395.924 -12.6205 394.5C-11.1709 393.476 -6.56203 390.258 0.127126 387.461L26.7433 451.121ZM324.962 82.0231L256.107 77.5558L221.421 612.163L290.277 616.63L359.132 621.098L393.817 86.4904L324.962 82.0231ZM290.277 616.63L346.135 657.137L742.941 109.95L687.083 69.443L631.224 28.9358L234.418 576.123L290.277 616.63ZM687.083 69.443L618.143 66.5654L595.713 603.95L664.652 606.828L733.593 609.705L756.023 72.3205L687.083 69.443ZM664.652 606.828L720.92 646.765L1093.41 121.96L1037.14 82.0231L980.876 42.0861L608.385 566.891L664.652 606.828ZM1037.14 82.0231L974.592 111.149L1132.94 451.216L1195.49 422.091L1258.04 392.965L1099.69 52.8971L1037.14 82.0231Z" fill="#E94E1B"/>
</g>
<defs>
<filter id="filter0_d_469_1803" x="-22.8196" y="0.437927" width="1291.33" height="693.198" filterUnits="userSpaceOnUse" color-interpolation-filters="sRGB">
<feFlood flood-opacity="0" result="BackgroundImageFix"/>
<feColorMatrix in="SourceAlpha" type="matrix" values="0 0 0 0 0 0 0 0 0 0 0 0 0 0 0 0 0 0 127 0" result="hardAlpha"/>
<feOffset dy="4"/>
<feGaussianBlur stdDeviation="2"/>
<feComposite in2="hardAlpha" operator="out"/>
<feColorMatrix type="matrix" values="0 0 0 0 0 0 0 0 0 0 0 0 0 0 0 0 0 0 0.25 0"/>
<feBlend mode="normal" in2="BackgroundImageFix" result="effect1_dropShadow_469_1803"/>
<feBlend mode="normal" in="SourceGraphic" in2="effect1_dropShadow_469_1803" result="shape"/>
</filter>
</defs>
</svg>
