<svg width="111" height="65" viewBox="0 0 111 65" fill="none" xmlns="http://www.w3.org/2000/svg">
<path d="M87.0118 12.1419L86.0795 12.5037L87.0118 12.1419ZM29.4726 23.2437L30.1766 23.954L29.4726 23.2437ZM5.26164 64.7788C4.75659 65.0022 4.166 64.774 3.94253 64.2689L0.300764 56.0387C0.0772867 55.5336 0.305547 54.943 0.810601 54.7195C1.31565 54.4961 1.90624 54.7243 2.12972 55.2294L5.36684 62.5452L12.6826 59.3081C13.1877 59.0846 13.7783 59.3128 14.0018 59.8179C14.2252 60.3229 13.997 60.9135 13.4919 61.137L5.26164 64.7788ZM110.273 17.8121L110.542 18.7753C101.483 21.3029 93.2209 23.2082 87.3579 24.783C84.3881 25.5807 82.0207 26.2958 80.3704 26.9771C79.5425 27.3189 78.9434 27.6329 78.5506 27.9163C78.1318 28.2185 78.097 28.3778 78.1005 28.3609L77.1204 28.1625L76.1402 27.9642C76.2882 27.2328 76.83 26.6914 77.3805 26.2943C77.9568 25.8785 78.7197 25.4949 79.6072 25.1285C81.3876 24.3935 83.8647 23.6504 86.8391 22.8514C92.8645 21.2331 100.89 19.3919 110.005 16.8489L110.273 17.8121ZM77.1204 28.1625L78.1005 28.3609C78.0218 28.7497 78.147 29.4857 78.617 30.529C79.0646 31.5228 79.7492 32.631 80.5404 33.6789C81.3312 34.7262 82.2037 35.6803 83.0086 36.3762C83.4112 36.7243 83.7807 36.9937 84.1006 37.1777C84.4323 37.3685 84.65 37.432 84.7608 37.4428L84.6644 38.4381L84.5679 39.4334C84.0566 39.3839 83.554 39.1705 83.1035 38.9114C82.6413 38.6456 82.167 38.2924 81.7005 37.8891C80.7672 37.0822 79.8007 36.0183 78.9443 34.8841C78.0883 33.7504 77.3173 32.5135 76.7934 31.3504C76.2919 30.2369 75.9297 29.0042 76.1402 27.9642L77.1204 28.1625ZM84.6644 38.4381L84.7608 37.4428C84.6131 37.4285 84.5395 37.489 84.5696 37.468C84.6057 37.4428 84.6933 37.3655 84.8202 37.1887C85.0737 36.8354 85.3667 36.2517 85.6673 35.4366C86.2631 33.8214 86.8148 31.5031 87.1794 28.8487C87.9123 23.5126 87.8546 17.0773 86.0795 12.5037L87.0118 12.1419L87.944 11.7801C89.8993 16.8182 89.9121 23.6515 89.1608 29.1209C88.7833 31.8692 88.2043 34.3379 87.5437 36.1287C87.2162 37.0167 86.8496 37.7909 86.4452 38.3547C86.243 38.6363 86.002 38.9073 85.714 39.1083C85.42 39.3133 85.0268 39.4779 84.5679 39.4334L84.6644 38.4381ZM87.0118 12.1419L86.0795 12.5037C84.1225 7.46133 80.7531 4.7096 76.5533 3.5762C72.2934 2.42657 67.0904 2.92172 61.5224 4.60843C50.3901 7.98077 38.212 15.9901 30.1766 23.954L29.4726 23.2437L28.7687 22.5334C36.9876 14.3878 49.439 6.17911 60.9426 2.69433C66.6926 0.952473 72.3092 0.359299 77.0744 1.64528C81.8997 2.94749 85.761 6.15532 87.944 11.7801L87.0118 12.1419ZM29.4726 23.2437L30.1766 23.954C23.0626 31.0045 16.9659 41.049 12.6328 49.3862C10.4714 53.5449 8.75871 57.2592 7.58683 59.9329C7.00102 61.2694 6.55068 62.3452 6.24728 63.0855C6.09559 63.4557 5.98066 63.7419 5.90392 63.9349C5.86555 64.0314 5.83674 64.1046 5.81765 64.1533C5.80811 64.1777 5.80099 64.1959 5.79634 64.2079C5.79401 64.2138 5.7923 64.2183 5.7912 64.2211C5.79065 64.2225 5.79025 64.2235 5.79002 64.2241C5.78989 64.2245 5.78983 64.2246 5.78977 64.2248C5.78974 64.2248 5.78976 64.2248 4.857 63.8643C3.92424 63.5038 3.92434 63.5036 3.92447 63.5032C3.92456 63.503 3.92473 63.5025 3.92492 63.502C3.9253 63.5011 3.92583 63.4997 3.92652 63.4979C3.9279 63.4944 3.9299 63.4892 3.93251 63.4825C3.93773 63.4691 3.94542 63.4494 3.95555 63.4235C3.97581 63.3718 4.00583 63.2956 4.04543 63.196C4.12464 62.9968 4.24219 62.704 4.39665 62.3271C4.70555 61.5734 5.16218 60.4827 5.75506 59.13C6.94056 56.4253 8.67216 52.6699 10.8582 48.4638C15.22 40.0713 21.4311 29.8056 28.7687 22.5334L29.4726 23.2437Z" fill="#E94E1B"/>
</svg>
